<svg height="143.705" viewBox="0 0 134.606 143.705" width="134.606" xmlns="http://www.w3.org/2000/svg" xmlns:xlink="http://www.w3.org/1999/xlink"><clipPath id="a"><path d="m0 0h134.606v143.705h-134.606z"/></clipPath><g clip-path="url(#a)" fill="#fff"><path d="m116.451 29.274a22.7 22.7 0 0 1 -8.639-4.354c-5.031-4.306-8.7-9.418-11.381-13.15-.78-1.1-1.519-2.128-2.191-2.994-3.132-4.062-5.67-6.255-10.107-6.2-4.133.056-6.922 3.124-6.922 5.949a6.662 6.662 0 0 0 1.249 3.652 3.469 3.469 0 0 1 .733 1.777 1.119 1.119 0 0 1 -.647.891 3.062 3.062 0 0 1 -2.976-.208 4.208 4.208 0 0 1 -1.875-1.9 4.987 4.987 0 0 0 -.929-8.256l-.46-.189a4.757 4.757 0 0 0 -4.617-4.292 4.608 4.608 0 0 0 -4.618 4.216v.084l-.454.189a4.98 4.98 0 0 0 -.929 8.256 4.239 4.239 0 0 1 -1.873 1.9 3.07 3.07 0 0 1 -2.98.208 1.115 1.115 0 0 1 -.647-.891 3.449 3.449 0 0 1 .732-1.777 6.615 6.615 0 0 0 1.249-3.652c0-2.825-2.777-5.893-6.924-5.95-4.436-.054-6.972 2.139-10.1 6.2-.667.866-1.411 1.9-2.19 2.994-2.684 3.723-6.355 8.837-11.389 13.143a22.684 22.684 0 0 1 -8.631 4.354c-1.594.46-1.744 1.266-1.744 1.595s.189 1.112 1.76 1.512c1.955.483 4.982.016 7.713-1.154a1.986 1.986 0 0 0 .784.448c1.244.41 3.376.254 5.655-1.41a17.509 17.509 0 0 0 2.388-2.187l.2.1c1.974.337 4.213-.784 6.041-2.939l.485.093a6.633 6.633 0 0 0 4.311-2.632 3.357 3.357 0 0 0 3-.888 3.735 3.735 0 0 0 2.693-.429 16.417 16.417 0 0 1 6.857 1.227 16.1 16.1 0 0 1 6.359 6.181h.042v.891h-.055v3.2a3.3 3.3 0 0 1 -1.119.083 1.733 1.733 0 0 1 -.907-.348 4.8 4.8 0 0 0 .041-.62c0-1.416-.523-4.011-3.836-6.14a14.227 14.227 0 0 0 -9.183-2.423 15.458 15.458 0 0 0 -11.867 6.726l-.445.684c-10.356.356-16.863 7.04-17.049 17.636a12.336 12.336 0 0 1 -4.475 9.19l-.164.344.178.333a13.091 13.091 0 0 1 4.743 8.53c.571 3.171 2 9.011 5.159 12.65 4.45 5.448 9.678 6.148 13.734 6.148 10.125 0 16.59-9.281 16.59-15.665a6.119 6.119 0 0 0 -1.2-3.923 4.619 4.619 0 0 0 -3.732-1.6 4.913 4.913 0 0 0 -4.866 4.95 5.022 5.022 0 0 0 1.181 3.224 7.266 7.266 0 0 0 .787.908c-.642 1.085-3.387 5.157-8.505 5.157-6.966 0-12.22-5.116-12.22-11.885 0-5.107 4.079-8.486 4.119-8.53l.154-.34-.191-.322c-.037-.022-4.058-2.662-4.058-9.148 0-3.668 1.031-9.472 7.242-11.028a17.9 17.9 0 0 0 .189 7.879c2.193 8.212 9.817 12.423 16.22 15.165 2.428 1.039 4.751 1.884 7.42 2.781a11.28 11.28 0 0 0 -1.917 6.542 9.934 9.934 0 0 0 4.711 8.833 11.538 11.538 0 0 0 -3.06 8.048c0 4.058 2.339 6.841 5.156 8.7a34.226 34.226 0 0 1 -3.881.653l-.413.047a1.459 1.459 0 0 0 -1.354 1.295c0 .591.755.968 1.919.968a29.708 29.708 0 0 0 4.895-.547v.063c0 1.06 0 3.871 2.3 3.871 2.217 0 2.3-2.615 2.3-3.751a16.066 16.066 0 0 0 3.569.711h.4c.867.034 2.171.077 2.688-.434l.224-.549c0-1.127-1.159-1.331-2.762-1.614l-.218-.035a12.6 12.6 0 0 1 -1.394-.382l.494-.37c2.606-2.316 4.49-3.986 4.49-9.317a9.257 9.257 0 0 0 -3.41-7.215c1.138-.9 4.418-3.852 4.418-7.969a10.515 10.515 0 0 0 -2.575-7.442c.618-.17 1.124-.333 1.6-.5a14.571 14.571 0 0 1 1.2 3.97c.576 3.171 2 9.014 5.166 12.65 4.449 5.448 9.673 6.148 13.728 6.148 11.465 0 17.8-9.186 17.8-15.528a6.23 6.23 0 0 0 -1.246-4.019 4.733 4.733 0 0 0 -3.813-1.643 4.914 4.914 0 0 0 -4.865 4.95 5.021 5.021 0 0 0 1.176 3.224 6.845 6.845 0 0 0 .8.912 10.77 10.77 0 0 1 -9.6 5.647 12.165 12.165 0 0 1 -12.2-12.376c0-5.107 4.081-8.486 4.125-8.53l.147-.34-.188-.322-.195-.136.251-.134.2-.115c3.683-2.106 9.886-6.947 9.886-15.723a23.81 23.81 0 0 0 -.342-4.057 9.473 9.473 0 0 1 6.472 5.886c.7 1.911-1.121 3.945-1.146 3.967l-.092.388.281.279a5.762 5.762 0 0 0 5.107-1.015c2.887 2 5.113.742 5.205.682l.179-.227a6.694 6.694 0 0 0 .309-1.927 5.462 5.462 0 0 0 -1.171-3.41 7.042 7.042 0 0 0 .843-3.4 8.419 8.419 0 0 0 -.3-2.234l-.261-.271-.375.077a5.828 5.828 0 0 1 -2.805 1.334c-1.088.022-2.635-1.443-3.146-1.927l-.153-.142a17.942 17.942 0 0 0 -11.368-4.7 14.625 14.625 0 0 0 -12.9-6.971 14.879 14.879 0 0 0 -8.386 2.9c-2.452 1.792-3.651 3.664-3.651 5.687l.03.58a1.518 1.518 0 0 1 -.715.618 2.242 2.242 0 0 1 -1.379.2l-.122-.028v-4.15h-.054v-.941a16.039 16.039 0 0 1 6.338-6.131 16.352 16.352 0 0 1 6.851-1.227 3.728 3.728 0 0 0 2.69.429 3.359 3.359 0 0 0 3 .888 6.657 6.657 0 0 0 4.305 2.635l.5-.093c1.821 2.155 4.068 3.276 6.035 2.939l.2-.1a17.356 17.356 0 0 0 2.394 2.187c2.273 1.664 4.413 1.82 5.652 1.41a2 2 0 0 0 .787-.448c2.728 1.17 5.755 1.637 7.713 1.154 1.574-.4 1.756-1.186 1.758-1.512s-.154-1.135-1.739-1.595m-59.206-20.748a4.722 4.722 0 0 1 -.091.924l-.063.051-.415-.054-.292-.613.133-.53.64-.574a3.753 3.753 0 0 1 .091.793m-1.1-2.794a5.072 5.072 0 0 1 .73 1.158l-.563.476-.4-.052-.336-.724.143-.509zm-.434-.466-.153.165-.361-.049-.326-.778a6.424 6.424 0 0 1 .837.666m-.7 1.985.345.771-.143.526-.815.721-.4-.048-.33-.772.142-.53.806-.72zm-2.5 5.674.99-1.168.4.071.244.935-.18.763-.995 1.165-.4-.075-.238-.929zm-.524-1.206-.356-.947.144-.623.916-.949.4.068.352.907-.136.624-.932.976zm2.165-6.764.366.831-.139.509-.821.727-.394-.047-.4-.861.147-.508.842-.7zm-.613-1.025-.722.785-.361-.052-.431-1.043-.016-.055a7.217 7.217 0 0 1 1.528.364m-1.3 2.857.383.877-.139.528-.927.82-.4-.052-.385-.888.145-.527.918-.81zm-2.687 6.063 1.117-1.328.394.076.274 1.083-.18.755-1.1 1.318-.4-.079-.293-1.067zm-.534-1.3-.4-1.011.134-.623 1.041-1.065.4.063.394 1.023-.134.617-1.022 1.06zm2.225-7.229.412.929-.134.509-.886.782-.4-.047-.457-.94.139-.506.933-.777zm-.843-.788-.579.575-.378-.058-.157-.4a9.518 9.518 0 0 1 1.114-.121m-1.139 2.766.445 1-.14.527-1.054.925-.391-.05-.43-1.03.148-.539 1.025-.891zm-2.748 6.429 1.211-1.451.4.079.325 1.263-.175.763-1.219 1.452-.394-.071-.328-1.271zm-.232-1.394-.394-.057-.446-1.154.138-.626 1.131-1.186.4.066.444 1.147-.14.621zm1.911-7.4.407.911-.153.508-1.053.852-.412-.051-.569-1.211-.027-.138a8.009 8.009 0 0 1 1.808-.871m-3.927 2.764 1.116-.987.4.052.566 1.216-.134.534-1.18 1.039-.4-.05-.526-1.271zm.992 5.839-.182.766-1.576 1.856-.4-.074-.36-1.421.185-.763 1.572-1.862.4.077zm-3.4-3.176c.5-.643.963-1.22 1.417-1.734l.147.121.724 1.457-.077.631-1.282 1.629-.411-.01-.773-1.471-.043-.241zm-2.175 2.961c.355-.5.7-.971 1.03-1.43l.227.166.6 1.652-.127.707-1.658 2.078-.4-.038-.662-1.766c.342-.47.67-.929.982-1.369m-12.748 17.759a12.766 12.766 0 0 1 -7.766 1.391c-.8-.2-1.059-.5-1.066-.618s.262-.437 1.082-.675a23.569 23.569 0 0 0 8.973-4.541 53.759 53.759 0 0 0 6.225-6.353c1.392-1.651 2.63-3.281 3.726-4.779l.478 2.121.123.375c-.222.385-1.336 2.173-1.766 2.781-2.231 3.33-6.107 8.423-10.009 10.3m5.635-.566a5.912 5.912 0 0 1 -4.691 1.318l-.23-.071c4.829-2.526 9.386-9.279 11.2-12.2l1.168-1.674 1.582-2.3.312-.166.217.287.365 1.64a1.32 1.32 0 0 1 -.2.935l-.723 1.019c-1.766 2.8-5.8 8.867-9 11.207m9.58-6.422c-1.641 2.682-3.992 4.322-5.949 4.2a73.972 73.972 0 0 0 6.49-9.033l1.175-1.892 1.22-1.744.309-.169.224.284.306 1.336a1.225 1.225 0 0 1 -.191.916l-.766 1.264h.009c-.7 1.246-1.665 2.938-2.827 4.836m3.789-1.14a6.1 6.1 0 0 1 -3.538 2.438c.183-.257.363-.519.532-.793.851-1.4 1.6-2.673 2.212-3.75.054-.1.217-.378.424-.742.17-.3.326-.588.468-.85.59-1.044 1.246-2.209 1.249-2.209l.957-1.564.312-.167.218.277.309 1.25a1.367 1.367 0 0 1 -.188.935v-.006l-.832 1.479c-.7 1.29-1.692 3.094-2.121 3.707m3.2-1.093a2.394 2.394 0 0 1 -2.034.967c.6-1 1.457-2.575 2-3.581l1.052-2.013.927-1.554.336-.162.235.27.263 1.056a1.282 1.282 0 0 1 -.1.866l-.963 1.531a29.233 29.233 0 0 1 -1.719 2.62m1.067.1c.6-.853 1.274-1.957 1.725-2.728l1.828-3.086.84-1.31.305-.194.283.219.352.735a.644.644 0 0 1 -.121.55l-.056.094-.534.893c-.47.849-1.156 2.036-2.029 3.411a2.823 2.823 0 0 1 -2.593 1.416m5.535-.811a.427.427 0 0 1 -.41.456l-1.271-.137-.189-.463 1.684-3.625c.109-.236.32-.176.314.093zm.167-9.173-.809.842-.4-.065-.3-.766.14-.625.779-.808.41.06.3.739zm9.271-9.265a3.78 3.78 0 0 1 5.44.522 3.05 3.05 0 0 1 .528 1.755l-.457-.016-.019-.1a2.036 2.036 0 0 0 -1.159-1.361c-.2.046.12.431.279.825l.084.61c-1.052-.041-2.173-.09-2.173-.09h-3.314a3.386 3.386 0 0 1 .8-2.141m-4.17 7.235a4.168 4.168 0 0 1 4.056-4.27h5.236a4.167 4.167 0 0 1 4.059 4.27 4.165 4.165 0 0 1 -4.059 4.271h-5.236a4.166 4.166 0 0 1 -4.056-4.271m-3.238 12.161-.636-.208a.677.677 0 0 1 -.372-.629l.13-3.839c.005-.278.175-.448.379-.393a.749.749 0 0 1 .424.6l.482 4.059a.343.343 0 0 1 -.411.405m2.866 1.422-1-.735a1.2 1.2 0 0 1 -.4-.747l-.5-4.43a.527.527 0 0 1 .312-.579.457.457 0 0 1 .48.393l1.485 5.655c.069.265-.2.579-.385.443m3.54 2.209c-.358.109-.823-.082-1.343-.558a2.172 2.172 0 0 1 -.4-.825l-1.924-7.172a.738.738 0 0 1 .205-.73l.085-.062 1.295-.332a55.319 55.319 0 0 1 2.441 7.147c.118.851.683 2.242-.347 2.538m1.908 33.622c.577.155.979.568.889.912s-.629.508-1.206.356-.979-.558-.892-.909.629-.508 1.209-.359m2.654 1.549c.553.238.881.7.744 1.036s-.7.407-1.249.165-.883-.706-.738-1.034.694-.41 1.243-.167m-1.019-1.987v-26.685c0-.71.257-.671.585-.671.993 0 1.172.223 1.172.749v26.143c-.53.129-1.128.282-1.757.463m6.273.957c-.419.17-.83.1-.929-.154s.164-.6.579-.757.824-.095.921.156-.158.59-.571.755m1.376.8c.117.3-.192.706-.685.9s-.989.115-1.11-.186.195-.7.685-.9.992-.115 1.11.177m-1.766 3.173c.5.328.752.836.562 1.147s-.756.285-1.259-.043-.761-.842-.565-1.148.752-.287 1.262.044m1.808 7.236c-.273.074-.608-.246-.733-.721s-.006-.922.27-1 .61.24.736.722 0 .923-.273 1m.382.921c.277.027.469.424.43.894s-.293.826-.567.809-.467-.423-.428-.894.29-.828.565-.809m-2.684 15.971c-.252.071-.549-.216-.662-.64s-.013-.831.235-.9.547.219.665.641.007.834-.238.9m.2 2.526c-.075.4-.327.684-.547.634s-.359-.393-.29-.787.317-.678.542-.634.365.4.295.787m-.666-5.312c-.29-.458-.29-.976-.01-1.161s.746.032 1.034.5.292.973 0 1.16-.744-.042-1.029-.5m.291-1.784c-.216.223-.687.086-1.047-.293s-.473-.867-.251-1.083.7-.082 1.054.3.474.868.244 1.079m-2.908 10.281v-9.022a5.633 5.633 0 0 1 1.913 4.446 6.107 6.107 0 0 1 -1.913 4.576m1.338 1.089c-.288.322-.683.433-.888.251s-.121-.6.167-.924.688-.444.884-.247c.2.181.129.6-.163.92m-9.334-7.563c.29-.041.572.339.632.836s-.134.93-.427.963-.571-.342-.629-.843.129-.923.424-.956m-.629-.386c-.325-.068-.517-.544-.423-1.079s.44-.913.771-.853.516.547.426 1.082-.448.908-.774.85m11.583-13.579c-.217-.016-.368-.333-.346-.711s.238-.661.454-.636.371.33.336.7-.227.664-.444.648m.324 1.453c-.164.365-.459.581-.67.482s-.251-.462-.09-.822.456-.58.655-.483c.217.1.26.469.1.823m-.324-7.1c.206-.167.583-.009.857.336s.319.759.111.927-.581.013-.854-.347-.319-.76-.114-.916m-.22 2.052c-.187.146-.522.01-.766-.3-.226-.309-.273-.676-.093-.821s.519-.007.755.3.279.678.1.825m-.091 6.434c.176.145.121.494-.117.789s-.572.411-.741.272-.115-.5.118-.79.571-.415.74-.271m-1.066-.044c-.21.257-.508.36-.656.234s-.107-.436.106-.7.5-.366.651-.24.107.442-.1.7m.057 4.16c.413.34.572.831.362 1.1s-.715.2-1.132-.148-.571-.836-.362-1.1.725-.2 1.132.15m-.013 4.284c-.183.184-.582.074-.88-.246s-.394-.718-.2-.907.58-.068.877.249.393.722.2.9m-1.078-5.038c-.207.285-.749.225-1.213-.126s-.67-.852-.468-1.139.746-.225 1.209.12.67.861.472 1.145m-5.812-11.354c-.191.388-.527.619-.757.509-.233-.126-.265-.531-.074-.935.189-.388.531-.613.76-.5s.266.528.071.924m.671.454v6.027a4.049 4.049 0 0 1 -1.343-3.058 4.008 4.008 0 0 1 1.343-2.969m-1.554 6.079c.159-.125.454-.01.656.264s.247.6.085.719-.45.008-.664-.265-.238-.6-.077-.718m1.554 11.7v4.579a6.269 6.269 0 0 1 -.411-2.228 6.559 6.559 0 0 1 .411-2.348m-.416-1.46c-.153.41-.486.664-.722.566s-.306-.5-.148-.911.484-.661.728-.569.3.5.142.914m.256-1.968c-.237.451-.658.689-.937.538s-.312-.643-.071-1.1.657-.694.943-.539.306.649.065 1.1m-1.834-3.631c-.4-.322-.576-.776-.388-1.017s.662-.183 1.064.136.576.776.39 1.023c-.191.229-.664.174-1.066-.142m.9-1.214c-.348-.278-.5-.664-.337-.88s.574-.153.917.12.494.669.338.874-.574.159-.918-.114m.9-1.22c-.286-.229-.415-.552-.281-.732s.484-.128.768.1.421.558.287.728-.486.131-.774-.1m.438 2.163c.148-.21.541-.177.886.069s.508.623.364.831-.539.175-.889-.069-.511-.626-.361-.831m1.08-.249c-.309-.229-.454-.56-.325-.749s.49-.161.8.055.453.569.328.755-.49.152-.8-.061m.721-1.088c-.273-.2-.4-.492-.284-.656s.433-.142.708.06.4.481.285.651-.426.145-.709-.055m.589 1.952c.183-.238.651-.191 1.047.1s.579.743.407.985-.643.2-1.041-.1-.586-.749-.413-.99m1.424-11.649v7.833a2.706 2.706 0 0 1 -1.1.241l-.661.082v-8.994a13.3 13.3 0 0 1 1.757.838m-1.136-1.943c.126-.213.5-.213.858 0s.533.564.407.782-.511.205-.867-.011-.53-.563-.4-.776m-1.4-.976c-.4-.172-.634-.508-.535-.744s.506-.3.9-.128.635.516.536.754-.506.285-.9.118m-1.588-2.906c-.52-.142-.886-.512-.8-.831s.571-.463 1.1-.328.885.508.8.836-.568.454-1.093.323m-.148.459c.471.126.793.453.722.738s-.517.413-.984.292-.8-.459-.722-.74.511-.416.984-.29m-.448 1.611c.421.111.7.406.639.658s-.453.361-.869.257-.7-.4-.639-.659.456-.366.869-.256m-1.717-4.252c-.422-.087-.722-.366-.665-.626s.44-.388.859-.292.722.377.664.626-.434.391-.858.292m-.115.65c.509.113.864.449.793.755s-.523.459-1.023.35-.859-.448-.793-.748.525-.468 1.023-.357m-.3 1.57c.586.132.993.525.922.874s-.613.543-1.195.411-1-.523-.924-.872.612-.533 1.2-.413m-.118 5.842c-.265-.125-.3-.59-.088-1.043.214-.438.6-.689.856-.563s.3.6.085 1.038-.6.7-.853.568m.853 4.026c-.035.393-.243.688-.472.666s-.378-.353-.348-.738.249-.683.471-.664.379.349.349.736m-2.611-13.379c-.415-.1-.709-.391-.648-.648s.449-.369.867-.264.708.39.65.642-.451.374-.869.27m-.112.6c.473.114.8.437.735.727s-.511.421-.981.306-.8-.449-.736-.733.511-.426.982-.3m-.328 1.515c.523.125.891.494.815.808s-.567.471-1.1.339-.884-.491-.81-.815.566-.469 1.094-.332m1.575 4.86c.289.143.328.664.1 1.154s-.67.781-.956.639-.335-.661-.1-1.159.669-.779.957-.634m.126 6.31c-.042.44-.277.777-.531.754s-.433-.4-.388-.83.271-.78.527-.75.429.394.392.826m-.67-3.609c.281.109.374.591.2 1.083s-.554.8-.841.7-.375-.6-.2-1.082c.175-.5.553-.81.84-.7m-.05 5.118c.28-.093.618.216.769.689s.035.916-.235 1.012-.615-.227-.769-.7-.038-.916.235-1m.864-3.833c.148-.41.462-.673.7-.58s.314.493.172.9-.468.675-.705.585-.317-.495-.17-.908m.6 3.494c.229-.076.517.186.637.58s.038.776-.191.847-.523-.183-.643-.58-.035-.773.2-.847m.088 2.237c.177-.143.508 0 .743.3.23.319.273.678.1.814s-.516 0-.754-.3-.268-.667-.087-.814m.814 5.552c.293.161.323.68.077 1.16s-.7.734-1 .567-.328-.677-.076-1.159.7-.727.995-.568m.093 5.378c-.082.481-.394.825-.692.765s-.467-.493-.38-.968.4-.831.692-.771.47.489.38.974m-.394-3.128c.29.12.364.613.176 1.1s-.578.8-.862.682-.366-.6-.178-1.1.583-.8.864-.683m-.653 6.006c.244-.079.544.184.661.583s.017.776-.228.863-.542-.19-.665-.585-.011-.787.232-.861m.571-1.145c-.052-.415.109-.776.352-.8s.479.284.531.7-.118.782-.358.808-.478-.289-.525-.705m.6 2.477c.189-.12.506.05.7.378s.208.677.019.8-.51-.049-.707-.371-.2-.685-.012-.805m.618 1.948c.249-.167.665.024.922.418s.272.858.029 1.028-.661-.022-.921-.418-.274-.861-.03-1.028m.153 2.479c.162-.213.569-.174.9.1s.472.662.3.872-.565.173-.9-.1-.467-.658-.3-.872m.663-14.009c-.383-.277-.564-.684-.4-.914s.6-.2.984.071c.377.284.554.689.4.919s-.6.2-.979-.076m.814 13.169c.148-.195.508-.153.812.084s.424.593.276.788-.508.153-.815-.091-.417-.593-.273-.781m1.116-13.043c.151-.2.541-.163.875.084s.491.62.341.828-.535.165-.875-.093-.483-.612-.341-.819m.481 2.454.358-.251.019.016a13.169 13.169 0 0 1 1.38.962v8.339c0 .29.006.869.012 1.6a8.911 8.911 0 0 1 -.867.608c-.309-.221-.615-.458-.9-.71zm1.681-2.036c.213-.271.719-.2 1.129.138s.58.843.359 1.1-.714.2-1.129-.149-.575-.833-.359-1.089m3.42-4.318c.266-.322.626-.456.823-.3s.131.556-.13.881-.635.465-.832.307-.131-.553.139-.887m.421-6.4c-.106-.4-.008-.768.23-.834s.508.2.613.607 0 .771-.236.837-.5-.209-.607-.61m1.2 1.227c.245.016.415.378.382.8s-.262.743-.5.721-.427-.377-.39-.8.259-.738.508-.717m.7-3.877c-.228.184-.655.012-.95-.379s-.352-.851-.125-1.034.651 0 .952.386.349.848.123 1.027m-2.794-6.754c-.328-.181-.674-.361-1.027-.543l.043-.015c.484-.142.944-.022 1.021.273zm-1.191-1.154c-.421.126-.825.016-.9-.241s.216-.573.642-.695.831-.016.908.241-.216.57-.648.695m-.655 1.8c.179-.3.707-.289 1.2.012s.732.782.558 1.077-.711.284-1.2-.011-.738-.777-.562-1.078m2.12 3.364c.438.276.654.718.49.984s-.651.251-1.086-.036-.644-.725-.486-.987.65-.246 1.082.039m-.959 1.486c.357.235.539.607.4.827s-.548.207-.908-.034-.547-.607-.407-.82.543-.218.913.027m.372 5.255a4.458 4.458 0 0 1 -2.015 3.422v-7.215a3.931 3.931 0 0 1 2.019 3.791m-2.519-6.539c-.392-.247-.6-.632-.459-.875s.578-.236.974 0 .6.637.456.878-.574.23-.971 0m-1.5-3c.471.208.755.608.634.892s-.606.35-1.08.148-.751-.613-.631-.894.6-.353 1.077-.146m-3.136-27.38.531-.128v1.493a2.852 2.852 0 0 1 -1.247-.875 3.639 3.639 0 0 1 -.222-.552 3.11 3.11 0 0 0 .938.062m-2.611-2.983a.933.933 0 0 1 .493.662l-.734-.239zm-1.309-.647.3.073-.2.46-.317-.287zm1.678 2.462-.287.367c-.724-.645-2.362-1.5-2.165-1.777.248-.355 2.422 1.012 2.452 1.41m-2.9-.568a12.767 12.767 0 0 1 2.25 1.359l-.277.372c-.279.128-2.384-1.714-1.971-1.731m2.49 2.379.025-.016.161-.209a6.646 6.646 0 0 0 2.992 2.1v20.74c-1.669-.563-3.366-1.089-4.984-1.55a29.738 29.738 0 0 1 -11.295-6.346 14.92 14.92 0 0 1 -1.462-1.522 5.762 5.762 0 0 0 5.1-1.015c2.879 2 5.1.742 5.2.682l.181-.227a6.672 6.672 0 0 0 .3-1.927 5.461 5.461 0 0 0 -1.165-3.41 7.084 7.084 0 0 0 .835-3.4 8.209 8.209 0 0 0 -.293-2.234l-.268-.274-.369.077a6.069 6.069 0 0 1 -2.8 1.334c-1.093.022-2.641-1.443-3.157-1.927l-.145-.137a18.006 18.006 0 0 0 -2.119-1.682 6.34 6.34 0 0 1 2.767-.732 6.04 6.04 0 0 1 3.954 1.215 5.638 5.638 0 0 0 3.42 1.165 4.627 4.627 0 0 0 3.124-.7m-5.354 20.964c-.107.246-.529.292-.938.1s-.648-.546-.538-.792.528-.29.937-.1.649.54.539.792m-2.671-.432c-.145.256-.588.276-1.009.038s-.65-.623-.509-.88.582-.271 1-.038.65.633.517.88m-15.218-15.649c.435-.017.815.574.85 1.32s-.3 1.37-.732 1.392-.821-.574-.851-1.324.293-1.372.733-1.388m-1.285-.771c-.473-.093-.738-.82-.593-1.635l.022-.1c.547-.059 1.118-.093 1.734-.1l-.039.525c-.147.809-.645 1.4-1.124 1.312m1.753-1.23.205-.59c.448.021.866.068 1.273.125a2.094 2.094 0 0 1 0 .738c-.13.694-.563 1.206-.966 1.132s-.64-.711-.516-1.405m.919 5.1c.431-.088.9.425 1.043 1.159s-.073 1.4-.5 1.492-.9-.426-1.047-1.162.071-1.4.5-1.489m.868-.668c-.393.016-.732-.513-.762-1.186s.265-1.231.651-1.247.743.514.768 1.181-.26 1.233-.657 1.252m.562-4.041.251-.629c.35.094.677.2 1 .312l-.011.553c-.112.584-.467 1.011-.812.945s-.535-.59-.428-1.181m5.571 9.564a11.011 11.011 0 0 1 -2.644-6.619 8.916 8.916 0 0 1 .282-2.261 9.735 9.735 0 0 1 3.611 4.6c.691 1.911-1.132 3.945-1.148 3.967zm.883 2.072c.33.408.418.894.183 1.093s-.7.05-1.033-.352-.411-.894-.175-1.1.694-.041 1.025.356m-2.253-.312c-.314.2-.831-.071-1.162-.6s-.342-1.12-.033-1.317.829.068 1.157.6.341 1.124.038 1.323m-.752-3.939c.258.539.206 1.1-.109 1.249s-.774-.159-1.023-.694-.207-1.094.109-1.25.772.161 1.023.695m-1.858-3.626c-.348.014-.654-.456-.68-1.052s.235-1.086.584-1.1.651.454.676 1.045-.236 1.09-.58 1.109m-.188 2.849c-.364.079-.755-.361-.883-.974s.065-1.17.417-1.246.76.361.884.974-.063 1.169-.418 1.246m-.947.941c.353-.178.867.174 1.154.782s.227 1.235-.123 1.4-.877-.18-1.159-.781-.227-1.244.128-1.405m.455 2.988c.368-.236.983.087 1.378.718s.407 1.34.04 1.575-.984-.081-1.378-.716-.41-1.339-.04-1.577m1.524 3.116c.29-.254.867-.052 1.291.451s.525 1.121.233 1.372-.878.058-1.3-.453-.522-1.116-.225-1.37m1.5-1.184c.261-.235.782-.051 1.16.4s.47 1.006.205 1.235-.782.044-1.162-.4-.468-1.007-.2-1.231m1.226 2.417c.254-.273.817-.148 1.271.279s.615.995.36 1.269-.814.148-1.263-.279-.612-1-.368-1.269m1.47-1.383c.208-.23.681-.126 1.061.23s.517.836.309 1.065-.689.126-1.064-.234-.519-.831-.306-1.061m1.358 2.343c.175-.256.658-.213 1.074.094s.613.746.44 1-.661.21-1.08-.091-.612-.751-.434-1.006m1.416-.453c-.373-.268-.544-.661-.391-.891s.579-.187.952.081.546.668.39.891-.586.186-.951-.081m-3.627-21.322c.454-.421 1.017-.542 1.266-.268s.079.84-.374 1.264-1.018.541-1.272.262-.077-.831.38-1.258m-.607-.607c-.514.476-1.162.607-1.438.3s-.093-.949.424-1.427 1.153-.612 1.432-.307.091.953-.418 1.433m1.909-.768c-.183-.32.1-.834.644-1.145s1.114-.288 1.3.033-.112.837-.648 1.142-1.115.3-1.3-.03m9.461-2.49s.782.41.485.771-.865-.031-.865-.031zm-1.022-.6-.426.71s-.621-.3-.471-.738.9.028.9.028m-1.949-.339a5.571 5.571 0 0 0 3.48 2.832c.219.989-.919 1.646-1.025 1.071a2.283 2.283 0 0 0 -1.509-1.539 2.632 2.632 0 0 1 -1.217-.768 2.094 2.094 0 0 1 -1.564 0 2.3 2.3 0 0 1 1.835-1.6m-4.232-2.521c.845-.2 1.624.033 1.738.53s-.476 1.064-1.32 1.269-1.63-.033-1.745-.528.476-1.063 1.327-1.271m-1.328 2.644c.217.389-.132 1.007-.774 1.373s-1.329.35-1.544-.041.128-1 .768-1.37 1.334-.345 1.55.038m-2.811-2.236c.744-.426 1.545-.407 1.794.044s-.151 1.157-.894 1.58-1.55.415-1.8-.041c-.249-.44.15-1.16.9-1.583m-1.063 3.122c.312.345.1 1.055-.47 1.589s-1.285.683-1.6.333-.1-1.058.471-1.588 1.287-.684 1.6-.334m-3.215-1.4c.623-.579 1.422-.749 1.758-.368s.112 1.164-.517 1.749-1.419.752-1.761.374-.109-1.169.52-1.755m-2.293 3.1c.57-.53 1.284-.684 1.6-.336.262.292.15.851-.238 1.336a16.727 16.727 0 0 0 -1.9-.2 2.03 2.03 0 0 1 .545-.8m-12.954 18.444c0 5.742 2.895 8.626 4.013 9.526a12.582 12.582 0 0 0 -4.037 8.814c0 7.239 5.6 12.7 13.024 12.7 6.389 0 9.342-5.816 9.375-5.876l-.113-.5a6.076 6.076 0 0 1 -.926-1.011 4.2 4.2 0 0 1 -1-2.713 4.1 4.1 0 0 1 4.072-4.14 3.817 3.817 0 0 1 3.117 1.312 5.311 5.311 0 0 1 1.008 3.4c0 6.059-6.151 14.845-15.786 14.845-3.878 0-8.876-.662-13.125-5.856-3.042-3.5-4.429-9.18-4.986-12.264a14.048 14.048 0 0 0 -4.652-8.737 13.071 13.071 0 0 0 4.387-9.5c.181-10.548 6.578-16.846 17.114-16.846a17.088 17.088 0 0 1 11.587 4.5l.149.142c.626.585 2.289 2.159 3.7 2.143a5.732 5.732 0 0 0 2.789-1.142 7.459 7.459 0 0 1 .128 1.419 6.151 6.151 0 0 1 -.845 3.242l-.061.211.116.289a4.573 4.573 0 0 1 1.123 3.068 5.773 5.773 0 0 1 -.229 1.514c-.5.23-2.231.8-4.446-.872l-.506.022a5.06 5.06 0 0 1 -3.991 1.162 5.517 5.517 0 0 0 1.1-3.054 3.384 3.384 0 0 0 -.211-1.206 10.613 10.613 0 0 0 -10.391-6.824c-7.308 0-11.5 4.463-11.5 12.237m9.49-5.74c-.512.019-.949-.662-.99-1.526s.342-1.588.847-1.61.949.658.987 1.528-.342 1.58-.844 1.608m.41 2.088c-.181-.891.092-1.7.617-1.81s1.091.52 1.283 1.411c.175.894-.1 1.711-.623 1.821s-1.091-.526-1.277-1.422m2.176 5.194c-.438.214-1.075-.218-1.422-.965s-.282-1.523.154-1.736 1.074.228 1.421.974.279 1.514-.153 1.727m.713-3.551c.391-.2.968.2 1.288.872s.254 1.378-.14 1.575-.973-.2-1.29-.883-.254-1.376.142-1.564m.377 5.1c-.458-.732-.472-1.558-.043-1.831s1.146.1 1.6.831.47 1.559.043 1.837-1.148-.1-1.6-.837m3.763 3.346c-.325.279-.968.055-1.428-.5s-.576-1.235-.254-1.514.962-.061 1.422.5.582 1.236.26 1.514m2.982 1.212c-.289.317-.949.167-1.479-.325s-.713-1.159-.421-1.476.951-.172 1.471.328.721 1.154.429 1.473m2.2 1.906c-.217.309-.807.265-1.321-.107s-.759-.926-.536-1.241.81-.26 1.321.115.757.924.536 1.233m.883-1.5c-.207.3-.771.252-1.263-.1s-.725-.88-.511-1.181.771-.248 1.26.1.716.886.514 1.181m2.3 2.274c-.183.356-.818.372-1.4.056s-.9-.875-.712-1.231.814-.372 1.4-.046.9.873.708 1.221m-.486-1.7c-.5-.275-.772-.746-.607-1.052s.7-.323 1.2-.044.777.755.61 1.056-.7.322-1.2.04m2.911 3.4c-.147.342-.732.41-1.3.142s-.9-.749-.755-1.091.743-.412 1.312-.145.9.755.741 1.094m.566-1.586c-.139.309-.669.372-1.181.132s-.82-.687-.681-1 .67-.369 1.181-.131.818.686.681.995m-.506-1.471c-.459-.21-.729-.612-.613-.891s.611-.333 1.065-.115.737.612.609.889-.6.336-1.061.117m1.723 3.685c-.623-.207-1.028-.683-.908-1.055s.719-.519 1.345-.311 1.028.677.911 1.055-.722.519-1.348.311m.566-1.875c-.541-.174-.892-.574-.793-.9s.624-.451 1.158-.273.89.579.788.907-.62.443-1.153.268m.554-1.864c-.448-.154-.743-.493-.658-.766s.522-.377.97-.224.746.48.659.754-.519.378-.971.236m.668 4.232c.081-.355.626-.519 1.2-.372s.985.541.9.891-.623.52-1.2.378-.987-.548-.9-.9m.67 2.9c.262-.546.729-.864 1.05-.7s.368.73.1 1.274-.733.866-1.05.7-.369-.733-.1-1.274m-.782 7.119c-.315-.033-.53-.487-.481-1.022s.341-.957.648-.927.538.492.483 1.025-.339.954-.65.924m.413-2.982c-.334-.121-.432-.692-.23-1.256s.648-.934.981-.809.429.689.233 1.257-.646.941-.984.808m1.238 6.131c-.32.1-.716-.256-.888-.8s-.047-1.076.273-1.179.714.254.883.8.049 1.072-.268 1.175m-.243-3.143c-.282-.023-.479-.435-.435-.93s.309-.858.593-.831.481.438.44.924-.312.866-.6.837m1.762 5.483c-.215.17-.628 0-.915-.371s-.336-.825-.114-1 .631 0 .915.374.333.831.114 1m.1-1.191c-.255-.34-.307-.749-.1-.9s.568 0 .828.338.306.747.1.9-.572 0-.828-.339m-1.064 6.173c.214-.569.667-.93.995-.793s.427.7.208 1.28-.673.924-1 .786-.423-.705-.2-1.273m-.2 6.174c-.342.038-.67-.392-.736-.974s.153-1.083.492-1.121.671.393.731.973-.154 1.08-.487 1.122m.667.218c.257-.083.568.195.7.607s.016.836-.243.907-.571-.191-.694-.609-.02-.828.24-.9m.916 3.855c-.257.164-.7-.058-.97-.512s-.28-.942-.02-1.112.7.065.973.508.285.952.017 1.116m.319-2.27c.228-.142.6.061.834.438s.241.814.02.963-.6-.055-.84-.447-.246-.811-.014-.954m1.537 3.724c-.26.17-.692-.027-.971-.441s-.286-.912-.029-1.084.7.024.97.442.292.9.03 1.083m-4.653 3.644c-.33-.678.426-.9 2.649-1.164a26.876 26.876 0 0 0 2.822-.484 19.978 19.978 0 0 0 2.033 1.06c-2.375.465-7.152 1.3-7.507.586m9.881 2.168c-.217.974-.95 1.236-1.286.974s-.325-.635-.325-1.154v-2.119l.205-.05c.53.208 1.039.389 1.534.548a12.491 12.491 0 0 1 -.128 1.8m6.73-2.242c.159.586-.519.821-2.436.623-2.185-.22-6.845-1.735-7.428-2.419s1.629-1.7 3.374-.511c2.9 1.974 6.3 1.608 6.49 2.307m-3.062-3c-.312.409-.766.564-1.014.369s-.192-.685.12-1.09.768-.564 1.012-.362.2.685-.118 1.083m.282-2.634c-.2.469-.605.749-.894.623s-.367-.616-.164-1.088.6-.755.894-.629.363.62.164 1.094m.114-4.025c-.041-.442.146-.814.419-.842s.517.306.558.749-.148.809-.419.833-.518-.307-.558-.74m1.422-.132c-.041-.442.151-.813.419-.844s.516.312.56.751-.151.81-.421.832-.52-.306-.558-.739m.071 2.147c-.085.47-.377.811-.65.757s-.429-.476-.35-.946.38-.814.654-.759.436.48.346.948m-.131-3.133c-.295.084-.651-.26-.789-.763s-.015-1 .283-1.08.65.26.788.769.016.989-.282 1.074m.173 5.869c-.216.5-.635.791-.941.656s-.383-.644-.175-1.15.629-.79.943-.654.381.648.173 1.148m1.542-2.468c-.1.549-.444.949-.761.883s-.5-.555-.4-1.1.441-.948.756-.889.5.552.4 1.1m-.654-5.881c.347-.093.752.306.918.9s.014 1.153-.328 1.244-.76-.3-.921-.889-.009-1.153.331-1.252m-.659-.443c-.276.181-.743-.038-1.028-.5s-.295-.974-.011-1.164.741.043 1.033.5.293.978.006 1.158m-.927-2.4c-.252.257-.8.1-1.218-.339s-.548-1.012-.291-1.263.8-.093 1.224.344.548 1.006.285 1.258m.236-3.767c-.29.36-.693.508-.908.333s-.145-.606.147-.968.695-.516.9-.334.154.605-.141.969m.258-3.169c-.184.429-.538.681-.792.571s-.3-.557-.112-.984.547-.683.787-.568c.258.108.312.55.117.981m1.433.675c-.218.5-.631.8-.923.662s-.348-.645-.132-1.138.634-.8.924-.667.356.64.131 1.143m1.455-3.023c-.039.525-.32.923-.62.9s-.518-.47-.474-.984.324-.916.622-.891.515.464.472.979m-.328-3.365c.148.549 0 1.076-.316 1.163s-.706-.286-.857-.844-.006-1.066.318-1.16.7.285.855.841m-1.086-3.513c.327.432.388.943.139 1.137s-.725.011-1.047-.413-.392-.943-.14-1.143.713-.008 1.048.419m-.678-2.759c-.578.229-1.146.134-1.283-.211s.225-.814.795-1.043 1.152-.145 1.286.207-.224.817-.8 1.047m9.366 4.454a12.965 12.965 0 0 0 13.014 13.189 11.832 11.832 0 0 0 10.469-6.376l-.115-.493a6.064 6.064 0 0 1 -.922-1.011 4.185 4.185 0 0 1 -1-2.713 4.1 4.1 0 0 1 4.061-4.138 3.944 3.944 0 0 1 3.2 1.356 5.418 5.418 0 0 1 1.055 3.494c0 6.014-6.051 14.708-17 14.708-3.877 0-8.874-.662-13.126-5.856-3.035-3.5-4.426-9.18-4.976-12.264a14.113 14.113 0 0 0 -4.656-8.735 13.048 13.048 0 0 0 4.393-9.5c.112-6.567 2.633-11.487 7.07-14.265a4.918 4.918 0 0 1 1.283.83 16.736 16.736 0 0 1 2.138 2.893c-3.144 1.952-4.859 5.566-4.859 10.542 0 5.742 2.893 8.626 4 9.526a12.594 12.594 0 0 0 -4.032 8.814m-.8-34.727c-1.146-1.088-.993-2.873 1.066-2.252.378.115.763.541.763 1.4v1.547c0 .4-.686.4-1.829-.694m12.814 8.106c.023.747-.309 1.354-.744 1.37s-.8-.577-.828-1.318.317-1.35.741-1.367c.44-.016.807.575.831 1.315m.391-4.573c.4-.126.894.322 1.107 1.006s.063 1.345-.341 1.468-.892-.32-1.108-1-.057-1.342.342-1.471m-10.733 15.666c.273-.164.594-.312.752-.025s.589 1.14.958 1.878c.187.372-.244.662-.657.842-.341.147-.58.077-.695-.213s-.62-1.4-.691-1.7a.6.6 0 0 1 .333-.784m-.661-.506a14.415 14.415 0 0 1 -.18-2.311c0-2.995.687-7.425 4.338-9.789a9.106 9.106 0 0 1 .418 3.619 11.907 11.907 0 0 1 -.871 3.707 12.512 12.512 0 0 1 -2.049 3.175c-.473.508-1.071 1.088-1.656 1.6m2.791 3.223c.423-.257.881-.257 1.025 0s-.065.656-.486.913-.875.251-1.021 0 .062-.662.482-.913m-.185-1.232a17.727 17.727 0 0 1 -.9-1.886c-.134-.285-.052-.539.3-.859.369-.333.515-.39.726-.234a14.212 14.212 0 0 1 1.5 1.59c.172.2-.094.662-.375.886s-1.038.747-1.252.5m.468-3.165a.617.617 0 0 1 -.041-.827c.224-.317.407-.56.707-.371a17.045 17.045 0 0 1 1.947 1.285c.558.459-.044.978-.347 1.263s-.5.3-.763.079-1.29-1.176-1.5-1.429m.954-1.455a.525.525 0 0 1 -.2-.771c.2-.322.42-.639.781-.519a24.067 24.067 0 0 1 2.267.847c.677.328.2 1.017-.041 1.378s-.441.448-.76.285-1.773-1.017-2.051-1.22m2.909-.9c-.629-.212-2.026-.732-2.25-.842-.25-.131.085-1.438.7-1.28.665.167 2.09.723 2.09.723a.553.553 0 0 1 .368.721c-.082.34-.286.9-.912.678m-1.555-2.531c-.274-.072-.129-.683-.042-.957a.365.365 0 0 1 .459-.29s2.067.126 2.45.24.167.809.123 1.089-.151.637-.432.585-2.094-.542-2.558-.667m3.34-4.435c0 .487-.057.935-.455.935s-1.964-.044-2.44-.044-.392-.606-.392-1.008a.808.808 0 0 1 .711-.731c.274-.032 1.7-.308 1.986-.322.71-.043.59.689.59 1.17m-.006 2.22c0 .295-.043.667-.328.667s-2.178-.152-2.673-.2c-.285-.028-.244-.673-.206-.962a.377.377 0 0 1 .411-.384s2.1-.006 2.506.033.29.547.29.842m-.566 5.786c.266-.444.7-.673.958-.51s.254.662-.017 1.1-.7.678-.959.509-.252-.656.018-1.1m1.015-1.193c-.389-.142-.514-.8-.277-1.466s.75-1.087 1.132-.945.515.8.279 1.462-.746 1.092-1.134.949m1.044-3.07c-.306-.046-.49-.5-.418-1.02s.391-.9.689-.855.485.506.41 1.019-.382.9-.681.856m.162-5.728c-.3.094-.687-.246-.851-.771s-.047-1.033.269-1.131.679.246.844.77.046 1.037-.262 1.132m-1.239-2.457c-.418.18-1.01-.268-1.305-.99s-.188-1.46.236-1.644 1.013.26 1.3.994.2 1.459-.235 1.64m-.954.612a3.561 3.561 0 0 1 .319 1.574c-.032.282-.243.449-.558.564s-1.194.241-1.869.446-.952-.241-1.033-.687a.942.942 0 0 1 .477-.97c.318-.206 1.455-.834 1.909-1.092a.508.508 0 0 1 .755.165m-1.062-.692c-.364.208-1.51 1.014-2.114 1.378s-1.033-.489-1.307-.894-.2-.724-.041-.886l1.706-1.782c.714-.608 1.633.809 1.864 1.176s.244.809-.111 1.008m-3.858-.725c-.243.323-.8-.043-.992-.365a2.3 2.3 0 0 1 .035-1.376c.083-.281.555-1.818.555-1.818.241-.525 1.195-.082 1.638.325s.672 1.01.508 1.253-1.509 1.656-1.744 1.981m-1.313-2.224c-.079.286-.242 1.213-.713 1.011a1.2 1.2 0 0 1 -.674-1.176c0-.487-.038-1.378 0-1.739a.65.65 0 0 1 .872-.642c.515.12.991.607.918 1s-.327 1.263-.4 1.543m2.171 23.639c-.465.274-.974.274-1.132 0s.074-.726.533-1.011.962-.279 1.126 0-.074.73-.527 1.016m.309-2.851c-.188-.2-.077-.631.259-.959s.76-.43.95-.23.076.631-.257.959-.763.435-.952.23m2.059 1.014c-.419.4-.94.522-1.176.271s-.092-.773.317-1.184.944-.525 1.182-.279.089.78-.323 1.192m-.252-2.815c-.279-.241-.186-.837.221-1.327s.969-.68 1.258-.435.183.838-.221 1.325-.971.682-1.258.437m2.728.894c-.426.5-1.011.713-1.309.456s-.2-.88.235-1.391 1.006-.717 1.3-.462.2.879-.228 1.4m1.768-2.721c-.349.573-.913.877-1.249.658s-.328-.856.022-1.432.913-.88 1.249-.668.329.862-.022 1.442m1.65-3.011c-.26.733-.818 1.2-1.25 1.047s-.564-.883-.3-1.62.823-1.2 1.249-1.039.569.88.3 1.612m.439-3.433c-.1.666-.5 1.164-.893 1.1s-.635-.647-.525-1.326c.092-.672.5-1.169.885-1.1s.632.648.533 1.329m-.288-1.859c-.473.018-.885-.635-.905-1.455s.342-1.487.812-1.5.888.636.911 1.448-.342 1.493-.818 1.51m9.569-5.55.147.142c.626.585 2.294 2.159 3.713 2.143a5.757 5.757 0 0 0 2.788-1.142 8.4 8.4 0 0 1 .12 1.419 6.183 6.183 0 0 1 -.839 3.242l-.06.211.112.289a4.571 4.571 0 0 1 1.124 3.068 5.544 5.544 0 0 1 -.232 1.514c-.493.23-2.231.8-4.444-.872l-.507.022a5.032 5.032 0 0 1 -3.986 1.162 5.548 5.548 0 0 0 1.1-3.054 3.488 3.488 0 0 0 -.205-1.206 10.526 10.526 0 0 0 -7.4-6.491 18.357 18.357 0 0 0 -1.771-4.915 17.129 17.129 0 0 1 10.34 4.459m-11.979-3.889c.467-.2 1.109.295 1.433 1.091s.221 1.616-.252 1.812-1.113-.29-1.439-1.093-.215-1.613.258-1.81m-2.082-2.685c.347-.235.942.055 1.337.656s.415 1.274.07 1.509-.948-.06-1.339-.656-.419-1.274-.068-1.509m-.266 2.865c-.267.183-.732-.043-1.03-.5s-.322-.982-.052-1.162.727.049 1.025.5.323.979.057 1.159m-2.673-5.56c.344-.384 1.129-.214 1.761.369s.858 1.374.516 1.755-1.129.21-1.761-.369-.869-1.373-.516-1.755m.139 2.1c.569.53.785 1.246.471 1.591s-1.022.194-1.595-.339-.785-1.247-.472-1.589 1.019-.191 1.6.337m-4.456-3.412c.249-.449 1.059-.471 1.8-.041s1.146 1.134.894 1.583-1.053.47-1.8.043-1.143-1.137-.9-1.585m.533 2.156c.646.37.987.987.777 1.365s-.913.407-1.548.039-.992-.98-.776-1.362.907-.41 1.547-.042m-2.874-2.6c.84.207 1.433.77 1.322 1.268s-.9.736-1.74.531-1.443-.777-1.326-1.269.894-.73 1.744-.53m-4.234 2.52a2.308 2.308 0 0 1 1.84 1.594 2.094 2.094 0 0 1 -1.569 0 2.626 2.626 0 0 1 -1.214.768 2.285 2.285 0 0 0 -1.509 1.542c-.112.574-1.244-.087-1.031-1.071a5.608 5.608 0 0 0 3.483-2.833m-1.05.312c.145.448-.468.738-.468.738l-.434-.708s.752-.473.9-.03m-1.922.628.38.739s-.565.383-.864.027.484-.766.484-.766m-1.211 3.974c.421.017-1.681 1.856-1.965 1.731l-.275-.381a12.821 12.821 0 0 1 2.24-1.35m-.434-.839c.2.276-1.446 1.131-2.169 1.774l-.283-.364c.027-.407 2.2-1.774 2.452-1.41m-1.108-.889.224.241-.322.29-.2-.462zm-.976.487.243.426s-.765.481-.737.225a.9.9 0 0 1 .494-.651m-3.358 3.66h.017a3.937 3.937 0 0 0 1.807-.165l.656-.3a3.235 3.235 0 0 1 -.844.96 3.976 3.976 0 0 1 -1.6.716h-.037zm0 2.349.088-.024a13.853 13.853 0 0 0 1.444-.438 5.578 5.578 0 0 0 1.835-1.3l.533-.577a5.8 5.8 0 0 0 4.081.427 8.368 8.368 0 0 0 2.28-1.11 5.066 5.066 0 0 1 1.152-.613l.079-.019a6.013 6.013 0 0 1 3.07-.109c.313.09.626.188.927.308-4.382 2.989-6.923 8.05-7.034 14.613a12.2 12.2 0 0 1 -2.527 7.161 18.913 18.913 0 0 1 -3.6 1.224l-.346.066c-.443.082-1.132.208-1.986.4zm.845 25.01c.442.268.67.705.518.973s-.654.262-1.089 0-.67-.709-.508-.979.643-.257 1.079.011m-.909-41.4a42.86 42.86 0 0 0 -1.16 6.567 1.616 1.616 0 0 1 -.588 1.309l-.527.23-.528-.23a1.622 1.622 0 0 1 -.583-1.309 43.154 43.154 0 0 0 -1.164-6.576 58.152 58.152 0 0 0 -2.218-6.524c-.367-.738-.012-.749-.012-.749a4.92 4.92 0 0 0 1.146.246c.706.071 2.252.142 3.363.142 1.066 0 2.662-.071 3.362-.142a4.905 4.905 0 0 0 1.148-.246s.353.011-.01.749a57.692 57.692 0 0 0 -2.225 6.528m2.572 3.254c-.516.476-.979.667-1.345.558-1.02-.3-.457-1.687-.344-2.538a55.7 55.7 0 0 1 2.428-7.141l1.3.332.08.062a.736.736 0 0 1 .21.73l-1.921 7.172a2.154 2.154 0 0 1 -.4.825m3.6-3.133a1.218 1.218 0 0 1 -.4.747l-1 .735c-.184.136-.445-.178-.376-.443l1.482-5.655a.456.456 0 0 1 .481-.393.529.529 0 0 1 .306.579zm2.11-.148-.636.208a.34.34 0 0 1 -.418-.409l.482-4.059a.74.74 0 0 1 .418-.6c.205-.055.381.115.39.393l.121 3.839a.683.683 0 0 1 -.364.629m16.2-9.845.218-.166c.343.459.681.934 1.031 1.43.318.44.651.9.993 1.369l-.665 1.766-.394.038-1.659-2.078-.126-.707zm-2.347-3.435c.459.514.926 1.091 1.419 1.734l.293.382-.042.241-.77 1.471-.414.01-1.277-1.629-.076-.631.725-1.457zm.525 6.037-.356 1.421-.4.074-1.569-1.854-.183-.766.361-1.421.394-.077 1.571 1.864zm-3.038-7.9.4-.052 1.123.987.145.533-.52 1.273-.39.05-1.188-1.042-.132-.534zm-1.635 4.381-.131-.621.437-1.147.4-.066 1.142 1.186.139.626-.443 1.154-.4.057zm1.094 3.347-.328 1.271-.4.071-1.213-1.452-.181-.763.328-1.263.394-.079 1.211 1.451zm-1.865-9.558a7.83 7.83 0 0 1 1.81.866l-.024.143-.574 1.211-.413.051-1.053-.852-.153-.508zm-.669 2.31 1.019.891.154.539-.43 1.03-.394.05-1.052-.925-.142-.524.442-1zm-.561 5.374-1.022-1.06-.14-.617.4-1.023.4-.063 1.025 1.069.139.623-.4 1.011zm.049 1.994-.289 1.067-.4.079-1.1-1.318-.181-.755.28-1.083.4-.076 1.112 1.328zm.085-9.954-.162.4-.371.058-.577-.575a9.567 9.567 0 0 1 1.11.121m-1.96.667.4-.05.929.777.145.506-.458.94-.406.047-.879-.782-.143-.509zm.342 3.224.144.527-.388.888-.4.052-.932-.82-.139-.528.391-.877.4-.052zm-1.48 4.231-.923-.976-.137-.624.352-.907.4-.068.916.948.141.623-.352.947zm.055 1.911-.238.929-.4.075-.995-1.165-.182-.763.243-.935.4-.071.989 1.168zm.314-10.121-.008.055-.429 1.042-.363.052-.717-.785a7.174 7.174 0 0 1 1.517-.364m-2.14 1.389.4-.049.837.7.145.508-.4.861-.392.047-.823-.727-.138-.509zm.342 2.964.139.53-.332.772-.386.048-.824-.721-.139-.526.341-.771.4-.052zm-1.058-3.322-.323.782-.363.049-.151-.165a6.045 6.045 0 0 1 .837-.666m-1.805 4.85-.41.054-.068-.054a4.883 4.883 0 0 1 -.09-.924 3.687 3.687 0 0 1 .09-.793l.642.574.131.53zm.372-2.084-.567-.477a4.533 4.533 0 0 1 .733-1.158l.426.349.14.509-.334.724zm.273 2.986.3-.739.412-.06.782.808.134.625-.289.766-.4.065-.809-.842zm1.98 10.115-1.274.137c-.216.019-.4-.186-.407-.456l-.12-3.683c-.011-.269.2-.329.308-.093l1.69 3.628zm1.257-.924c-.866-1.375-1.55-2.562-2.022-3.411l-.539-.893-.057-.094a.643.643 0 0 1 -.118-.55l.35-.735.287-.219.3.194.845 1.31 1.827 3.085c.448.771 1.117 1.875 1.724 2.728a2.828 2.828 0 0 1 -2.6-1.416m3.658 1.313c-.524-.692-1.2-1.759-1.716-2.62l-.959-1.535a1.261 1.261 0 0 1 -.1-.866l.272-1.056.238-.27.327.162.927 1.554 1.055 2.013c.544 1.006 1.4 2.586 2 3.581a2.413 2.413 0 0 1 -2.045-.967m3.21 1.093c-.426-.613-1.424-2.417-2.124-3.707l-.834-1.479v.006a1.4 1.4 0 0 1 -.188-.935l.312-1.25.212-.277.316.167.954 1.564s.658 1.165 1.249 2.209h.008c.137.262.3.547.467.85.21.364.364.643.419.742.615 1.077 1.362 2.35 2.216 3.75.171.274.348.536.53.793a6.1 6.1 0 0 1 -3.542-2.433m3.787 1.14c-1.163-1.9-2.132-3.59-2.825-4.836h.006l-.765-1.264a1.278 1.278 0 0 1 -.195-.916l.312-1.336.221-.284.309.169 1.223 1.744 1.177 1.892a73.535 73.535 0 0 0 6.486 9.033c-1.958.12-4.306-1.52-5.949-4.2m14.273 7.74a5.916 5.916 0 0 1 -4.691-1.318c-3.2-2.34-7.234-8.4-9-11.207l-.726-1.019a1.345 1.345 0 0 1 -.2-.935l.363-1.64.217-.287.313.166 1.58 2.3 1.168 1.674c1.822 2.92 6.373 9.673 11.2 12.2zm8.708.639a12.771 12.771 0 0 1 -7.767-1.391c-3.9-1.875-7.778-6.968-10.012-10.3-.426-.608-1.545-2.4-1.76-2.781l.12-.375.487-2.121c1.087 1.5 2.332 3.128 3.72 4.779a53.815 53.815 0 0 0 6.223 6.353 23.554 23.554 0 0 0 8.977 4.541c.816.238 1.078.555 1.073.675s-.262.422-1.061.618"/><path d="m72.473 11.318a3.888 3.888 0 0 0 .662-2.318 3.512 3.512 0 0 0 -.735-2.395c-.585-.67-1.247-1.307-.848-.077a5.151 5.151 0 0 1 -.035 3.445 6.446 6.446 0 0 1 -1.171 1.941c-.407.333-1.14.9-.594.859a4.2 4.2 0 0 0 2.721-1.455"/><path d="m1.933 117.219c0-1.219-.043-3.85-.043-4.161 0-.995-.132-1.269-.856-1.269h-.916l-.118-.153v-.465l.162-.141c.385 0 1.011.06 2.729.06 1.52 0 2.219-.06 2.588-.06l.2.1v.506l-.157.153h-.997c-.662 0-.76.339-.76 1.116 0 .274-.041 2.843-.041 3.939v.334l.235.15h7.215c.3 0 .388-.038.388-.3v-.189c0-1.112-.054-3.824-.054-4.054 0-.626-.077-1-.646-1h-1.014l-.137-.131v-.508l.115-.12c.413 0 1.247.06 2.578.06s2.124-.06 2.493-.06l.153.158v.47l-.153.131h-.88c-.561 0-.618.339-.618 1.039 0 .271-.041 3.565-.041 4.292v.657c0 .623.041 4.331.057 5.44 0 .7.192.977.777.977h.858l.178.138v.465l-.155.153c-.369 0-1.032-.054-2.458-.054-1.692 0-2.316.054-2.9.054l-.12-.136v-.482l.161-.138h1.225c.467 0 .531-.373.531-.895.013-.913.054-4.058.054-4.763v-.273c0-.213-.093-.229-.426-.229h-7.14l-.276.194v.408c0 .527.019 3.531.041 4.892.022.465.21.666.624.666h.957l.152.138v.482l-.152.136c-.372 0-1.054-.054-2.455-.054-1.682 0-2.265.054-2.71.054l-.14-.136v-.509l.14-.111h1.148c.486 0 .546-.468.546-.936.015-.918.058-4.705.058-5.208z"/><path d="m21.035 120.313c0 .131 0 2.685.021 3.029a.829.829 0 0 0 .956.821h.335l.136.109v.532l-.136.157c-.178 0-1.335-.066-2.335-.066-.757 0-2.048.066-2.179.066l-.137-.181v-.487l.137-.13h.489c.558 0 .914-.025.957-.427.02-.2.042-3.019.042-3.784v-.973c0-.355-.042-2.578-.042-2.893 0-.246-.2-.47-1.137-.47h-.4l-.139-.155v-.506l.139-.137c.135 0 1.51.09 2.557.071.645 0 1.777-.071 1.958-.071l.134.109v.534l-.134.155h-.384c-.6 0-.8.093-.82.557l-.021 3.03z"/><path d="m29.058 115.666a13.1 13.1 0 0 0 -2.73.2 5.118 5.118 0 0 0 -1.316 1.715l-.2.112-.393-.158-.09-.219c.156-.493.686-2.294.779-2.69l.2-.224.178.065.178.138a1.384 1.384 0 0 0 .872.245c.776.044 1.621.082 2.914.082h.885c.889 0 2.22-.038 3.136-.082a1.45 1.45 0 0 0 .8-.208l.269-.175.177-.065c.088 0 .131.065.2.492.044.311.421 1.908.533 2.515l-.112.172-.377.112-.244-.087a6 6 0 0 0 -1.108-1.717 14.214 14.214 0 0 0 -2.832-.219v3.73c0 2.335 0 4 .026 4.183.046.357.152.58.51.58h.848l.151.2v.465l-.151.134c-.156 0-1.539-.065-2.269-.065-.624 0-2.07.065-2.248.065l-.177-.2v-.449l.134-.153h.891a.458.458 0 0 0 .511-.355c.06-.85.06-2.029.06-3.364z"/><path d="m45.481 120.068c0-2.914-1.979-4.663-3.289-4.663a2.414 2.414 0 0 0 -2.181.819 4.931 4.931 0 0 0 -1.247 3.4c0 3.533 2.378 4.779 3.447 4.779 3.046 0 3.27-3.139 3.27-4.336m-6.63 4.117a5.2 5.2 0 0 1 -1.976-4.184 5.261 5.261 0 0 1 1.219-3.515 4.866 4.866 0 0 1 4.161-1.865 4.8 4.8 0 0 1 3.339 1.181 5.461 5.461 0 0 1 1.8 4.221 5.238 5.238 0 0 1 -.889 3.09 4.932 4.932 0 0 1 -4.425 2.045 6.14 6.14 0 0 1 -3.227-.974"/><path d="m53.538 115.666a13.151 13.151 0 0 0 -2.739.2 5.138 5.138 0 0 0 -1.31 1.715l-.2.112-.4-.158-.09-.219c.156-.493.692-2.294.782-2.69l.2-.224.178.065.175.138a1.381 1.381 0 0 0 .869.245c.784.044 1.627.082 2.914.082h.883c.888 0 2.228-.038 3.135-.082a1.473 1.473 0 0 0 .8-.208l.269-.175.174-.065c.091 0 .134.065.2.492.044.311.424 1.908.533 2.515l-.109.172-.38.112-.244-.087a5.918 5.918 0 0 0 -1.109-1.717 14.164 14.164 0 0 0 -2.828-.219v3.73c0 2.335 0 4 .028 4.183.041.357.156.58.508.58h.845l.156.2v.465l-.156.134c-.158 0-1.536-.065-2.269-.065-.621 0-2.067.065-2.244.065l-.178-.2v-.449l.134-.153h.885c.334 0 .49-.181.514-.355.069-.85.069-2.029.069-3.364z"/><path d="m62.976 124.382-.334.046-.068.178-.333.115-.178-.246c.065-.629.221-2.4.248-2.761l.156-.153.4.043.176.15a2.8 2.8 0 0 0 .4 1.518 2.093 2.093 0 0 0 1.889 1.11c.71 0 1.779-.559 1.779-1.51 0-1.268-.869-1.826-2.042-2.268a7.117 7.117 0 0 1 -2.181-1.155 2.948 2.948 0 0 1 -.78-2.3 2.6 2.6 0 0 1 .957-1.865 3.2 3.2 0 0 1 2.089-.669 3.564 3.564 0 0 1 1.577.287l.38.049.091-.159.286-.062.2.194c0 .741.2 2.186.222 2.5l-.087.128-.4.1-.134-.1a5.643 5.643 0 0 0 -.779-1.574 1.852 1.852 0 0 0 -1.471-.6 1.459 1.459 0 0 0 -1.572 1.354 1.817 1.817 0 0 0 .356 1.089 4 4 0 0 0 1.552.909 6.155 6.155 0 0 1 2.4 1.2 2.736 2.736 0 0 1 .716 2.137 2.926 2.926 0 0 1 -3.095 3.084 3.826 3.826 0 0 1 -2.422-.776"/><path d="m71.924 116.383c0-.4-.088-.712-.755-.712h-.4l-.134-.134v-.554l.134-.11c.131 0 1.552.063 2.245.063.535 0 1.845-.063 1.976-.063l.159.132v.532l-.135.134h-.309c-.71 0-.956.222-.98.4-.042.29-.021 1.043-.021 1.87v.913c0 .73.045 2.512.045 2.821a3.19 3.19 0 0 0 .511 1.78 2.715 2.715 0 0 0 2.069.951 3.123 3.123 0 0 0 2.024-.73 2.984 2.984 0 0 0 .73-2.31v-3.076a15.534 15.534 0 0 0 -.083-2.023c-.041-.374-.264-.6-.954-.6h-.246l-.134-.185v-.482l.134-.132c.109 0 1.355.063 1.936.063.38 0 1.493-.063 1.625-.063l.155.154v.486l-.132.158h-.2c-.777 0-.848.357-.913.6-.044.178-.044 1.876-.044 2.138 0 .2-.044 2.674-.063 3.221a3.636 3.636 0 0 1 -1.224 2.742 4.278 4.278 0 0 1 -2.961.842 5.891 5.891 0 0 1 -2.07-.292 2.652 2.652 0 0 1 -1.755-1.887 16.5 16.5 0 0 1 -.224-3.51z"/><path d="m86.389 122.605c0 1.061.311 1.689 1.424 1.689a1.994 1.994 0 0 0 2.135-2.07 2.07 2.07 0 0 0 -1.446-2.109 5.735 5.735 0 0 0 -2.113-.245zm0-3.429a4.075 4.075 0 0 0 2.269-.306 1.822 1.822 0 0 0 .823-1.47 1.688 1.688 0 0 0 -.67-1.444 3.352 3.352 0 0 0 -1.709-.5l-.489.03-.2.285c-.022.29-.022 1.514-.022 2.444zm-3.139-4.2.137-.156c.2 0 1.714.068 2.092.068.489 0 1.352-.068 1.891-.068a6.4 6.4 0 0 1 2.687.383 2 2 0 0 1 1.157 1.93c0 1.4-.669 1.755-2.069 2.269v.049c1.715.5 2.692 1.348 2.692 2.843a2.445 2.445 0 0 1 -1.156 2.135 7.282 7.282 0 0 1 -3.157.533c-.757 0-1.491-.065-2.246-.065-.6 0-1.4.065-1.779.065l-.181-.224v-.464l.159-.115h.6a.634.634 0 0 0 .6-.555c.068-.3.068-2.026.068-3.2v-1.645c0-.558-.049-2.111-.068-2.354-.04-.758-.467-.785-.891-.785h-.419l-.117-.156z"/><path d="m100.206 120.336c-.087-.312-1.134-3.647-1.178-3.825l-.135-.225-.177.246-1.536 3.8zm-3.354.71c-.091.266-.8 2.111-.889 2.379-.134.442-.068.738.4.738h.557l.154.151v.491l-.134.156c-.178 0-1.354-.065-1.711-.065-.424 0-1.537.065-1.733.065l-.093-.2v-.465l.093-.131h.304a1.177 1.177 0 0 0 .912-.47c.159-.175 1.294-2.849 1.827-3.959.153-.314 1.465-3.333 1.6-3.713l.021-.445-.089-.224.221-.151a3.3 3.3 0 0 0 1.246-.645l.266-.158.222.243c.313.888 1.451 4.071 1.736 4.957a40.6 40.6 0 0 0 1.446 3.964 1.314 1.314 0 0 0 1.046.6h.421l.116.131v.465l-.159.2c-.264 0-1.446-.065-1.958-.065-.42 0-1.735.065-2.022.065l-.179-.2v-.465l.11-.131h.356a.344.344 0 0 0 .357-.377c-.09-.443-.688-2.225-.872-2.74z"/><path d="m107.752 124.382-.334.046-.068.178-.334.115-.175-.246c.065-.629.219-2.4.24-2.761l.153-.153.4.043.177.15a2.8 2.8 0 0 0 .4 1.518 2.092 2.092 0 0 0 1.892 1.11c.711 0 1.774-.559 1.774-1.51 0-1.268-.866-1.826-2.036-2.268a7.087 7.087 0 0 1 -2.182-1.155 2.953 2.953 0 0 1 -.785-2.3 2.626 2.626 0 0 1 .957-1.865 3.22 3.22 0 0 1 2.1-.669 3.582 3.582 0 0 1 1.577.287l.374.049.1-.159.284-.062.2.194c0 .741.2 2.186.222 2.5l-.09.128-.4.1-.131-.1a5.624 5.624 0 0 0 -.78-1.574 1.854 1.854 0 0 0 -1.47-.6 1.459 1.459 0 0 0 -1.576 1.354 1.855 1.855 0 0 0 .354 1.089 4.073 4.073 0 0 0 1.556.909 6.194 6.194 0 0 1 2.4 1.2 2.74 2.74 0 0 1 .713 2.137 2.925 2.925 0 0 1 -3.092 3.084 3.815 3.815 0 0 1 -2.422-.776"/><path d="m126.041 119.734c0 .464.021 3.138.021 3.335.02.87.157 1.094.621 1.094h.649l.111.15v.491l-.18.157c-.2 0-1.331-.066-2.042-.066-.467 0-1.8.066-2.163.066l-.194-.157v-.51l.151-.131h.866c.337 0 .4-.268.4-.78 0-.314.049-2.589.049-2.983v-.2l-.338-.175h-4.951l-.231.138v.2c0 .377 0 2.562.023 2.985.023.683.181.821.492.821h.667l.134.15v.491l-.134.157c-.269 0-1.51-.066-2-.066-.424 0-1.867.066-2.181.066l-.151-.157v-.51l.151-.131h.692c.511 0 .533-.356.554-.821 0-.3.045-3.05.045-3.406v-.626c0-.889-.045-2.622-.045-2.846 0-.642-.243-.848-.645-.848h-.6l-.175-.155v-.467l.175-.178c.243 0 1.692.068 2.247.068.489 0 1.76-.068 2-.068l.177.178v.465l-.177.155h-.623a.556.556 0 0 0 -.6.58c0 .205-.023 2.048-.023 2.713v.184l.184.17h5.027l.309-.218v-.2c0-.6-.049-2.337-.049-2.514 0-.471-.219-.717-.506-.717h-.648l-.155-.126v-.516l.155-.156c.244 0 1.625.068 2.111.068.374 0 1.715-.068 1.892-.068l.2.23v.413l-.2.155h-.582c-.359 0-.488.246-.488.536 0 .337-.021 2.581-.021 3.089z"/><path d="m133.16 120.313c0 .131 0 2.685.022 3.029a.828.828 0 0 0 .955.821h.335l.134.109v.532l-.134.157c-.177 0-1.336-.066-2.337-.066-.757 0-2.045.066-2.182.066l-.125-.181v-.487l.125-.13h.492c.555 0 .911-.025.959-.427.02-.2.042-3.019.042-3.784v-.973c0-.355-.042-2.578-.042-2.893 0-.246-.205-.47-1.134-.47h-.4l-.136-.155v-.506l.136-.137c.135 0 1.51.09 2.56.071.641 0 1.779-.071 1.954-.071l.134.109v.534l-.134.155h-.375c-.6 0-.8.093-.825.557l-.022 3.03z"/><path d="m17.041 143.295a3.551 3.551 0 0 1 -2.319-2.608 20.2 20.2 0 0 1 -.317-4.746v-4.641c0-.686-.131-.995-.741-.995h-.916l-.139-.175v-.427l.178-.161c.2 0 1.153.063 2.673.063s2.459-.063 2.671-.063l.176.12v.512l-.157.131h-.976a.875.875 0 0 0 -.932.8c-.021.175-.04 1.542-.04 2.534v1.291c0 1.031.076 3.508.1 4.136a4.737 4.737 0 0 0 .623 2.472 3.622 3.622 0 0 0 3.1 1.4 4.16 4.16 0 0 0 2.928-1.072 4.846 4.846 0 0 0 1.012-3.428v-4.173c0-1.482-.041-2.613-.095-3.1a.871.871 0 0 0 -.884-.858h-.85l-.139-.159v-.465l.139-.139c.191 0 1.086.063 2.395.063 1.345 0 1.974-.063 2.144-.063l.2.139v.426l-.118.2h-.8a.8.8 0 0 0 -.843.776c-.041.2-.041 2.97-.041 3.237s-.038 3.686-.1 4.451a5.063 5.063 0 0 1 -1.636 3.762 5.21 5.21 0 0 1 -3.665 1.17 7.259 7.259 0 0 1 -2.63-.41"/><path d="m37.667 143.142c0 .2-.065.424-.328.424l-.517-.224c-.152-.153-.91-1.067-1.821-2.152-1.022-1.227-1.976-2.362-2.224-2.649-.531-.625-2.336-3.024-2.694-3.426h-.046v3.051c0 1.331.093 3.554.137 3.751.065.514.311.76.538.76h.462l.115.137v.528l-.115.139c-.153 0-1.044-.071-1.687-.071-.314 0-1.315.071-1.492.071l-.068-.158v-.58l.089-.066h.511a.68.68 0 0 0 .646-.667c.025-.267.069-1.842.069-4.358v-2.334a1.112 1.112 0 0 0 -1.181-1.184h-.2l-.134-.129v-.536l.134-.131c.046 0 .289.023.579.023.289.015.643.046.891.046.354 0 .818-.046 1.085-.046.315 0 .449.046.539.172.066.089 2.625 3.316 3.087 3.874.408.464 2.471 3.067 2.74 3.359h.089v-1.466c0-1.262-.026-1.963-.068-2.668a11.115 11.115 0 0 0 -.18-2.094.847.847 0 0 0 -.826-.4h-.374l-.153-.156v-.53l.153-.11c.153 0 1.113.069 1.826.069.467 0 1.244-.069 1.4-.069l.155.175v.465l-.136.156h-.222c-.557 0-.667.161-.708.473-.112 1.022-.071 2.422-.071 3.33z"/><path d="m44.525 138.827c0 .132 0 2.69.021 3.029a.83.83 0 0 0 .96.821h.33l.135.109v.536l-.135.155c-.177 0-1.334-.068-2.336-.068-.756 0-2.042.068-2.18.068l-.132-.177v-.487l.132-.136h.495c.549 0 .907-.023.955-.427.022-.194.043-3.015.043-3.778v-.972c0-.356-.043-2.578-.043-2.893 0-.246-.206-.469-1.138-.469h-.4l-.131-.157v-.508l.131-.131c.138 0 1.515.088 2.561.068.645 0 1.779-.068 1.96-.068l.133.106v.533l-.133.157h-.377c-.6 0-.8.092-.827.556l-.021 3.03z"/><path d="m52.428 134.005-.156.131h-.513c-.288 0-.624.05-.624.334a19.483 19.483 0 0 0 .976 3.248c.181.557 1.006 3.133 1.135 3.493h.071c.131-.47 1.221-3.23 1.334-3.56.845-2.467 1.129-3.072 1.129-3.291 0-.109-.085-.224-.462-.224h-.246l-.134-.158v-.509l.134-.131c.136 0 1.29.065 1.8.065.405 0 1.409-.065 1.534-.065l.14.152v.466l-.14.18h-.356a1.28 1.28 0 0 0 -.93.334 25.23 25.23 0 0 0 -1.846 3.915c-.2.465-2.028 4.828-2.2 5.112l-.355.181-.358-.334c-.487-1.313-1.666-4.538-1.844-5.023l-.158-.494c-.372-1.028-1.045-3.046-1.2-3.269-.186-.242-.355-.422-.647-.422h-.219l-.11-.131v-.561l.131-.106c.11 0 1.332.065 1.912.065.533 0 1.886-.065 2.023-.065l.18.152z"/><path d="m63.427 137.87 1.624-.111c.584-.148.8-.46.8-1.151l.115-.118.489.03.128.131-.04 1.58c0 .487.063 1.173.093 1.471l-.113.109-.473.044-.133-.092c-.113-.553-.247-.913-.821-1.045a7.929 7.929 0 0 0 -1.67-.156v.752c0 .78.049 2.073.049 2.357 0 1.05.64 1.115 1.6 1.115a3.214 3.214 0 0 0 2.357-.617 11.775 11.775 0 0 0 1.182-1.49l.289-.137.355.2.068.158-.8 2.354-.247.225c-.161 0-1.342-.069-6.012-.069-.393 0-1.62.069-1.883.069l-.137-.156v-.509l.159-.136h.194c1.053 0 1.115-.093 1.115-.4v-4.738c0-1.179-.016-2.622-.044-2.852-.065-.461-.2-.552-1.09-.552h-.222l-.084-.158v-.534l.109-.106c.333 0 1.556.065 1.883.065l4.987-.021.6-.044c.043 0 .1.044.137.311l.71 2.269-.024.153-.356.157-.2-.093c-.041-.064-1.107-1.313-1.481-1.665a1.361 1.361 0 0 0 -.851-.334l-2.359-.044z"/><path d="m74.257 138.429a4.618 4.618 0 0 0 .67.041c2.464 0 2.846-1.734 2.846-2.305a1.893 1.893 0 0 0 -.735-1.54 3.732 3.732 0 0 0 -2.111-.579c-.339 0-.67.09-.67.494zm-1.689-1.472v-2.138c-.021-.439-.221-.683-.847-.683h-.221l-.085-.158v-.534l.126-.106c.117 0 1.5.065 1.89.065.272 0 2.207-.065 2.494-.065a4.448 4.448 0 0 1 2.893.864 2.426 2.426 0 0 1 .776 1.624c0 1.536-.866 2.424-2.625 3.045v.044c.512.114.96.8 1.869 2.1a7.015 7.015 0 0 0 1.244 1.418 1.522 1.522 0 0 0 1 .249l.114.2v.443l-.131.156-.445-.047-.695-.022c-.508 0-1.039.022-1.419.044a14.428 14.428 0 0 1 -1.6-2.443c-.8-1.382-1.135-1.865-2.07-1.865l-.575.041v2.931a.557.557 0 0 0 .624.56h.577l.136.112v.533l-.176.156c-.162 0-1.363-.069-2.1-.069-.555 0-1.69.069-1.849.069l-.133-.178v-.511l.133-.112h.269c.535 0 .8-.093.8-.579.021-1.088 0-2.4.021-3.757z"/><path d="m84.023 142.9-.338.05-.063.175-.337.12-.172-.252c.063-.626.221-2.4.24-2.761l.153-.153.406.044.177.153a2.808 2.808 0 0 0 .4 1.517 2.084 2.084 0 0 0 1.886 1.107c.714 0 1.78-.558 1.78-1.509 0-1.268-.866-1.823-2.048-2.269a6.964 6.964 0 0 1 -2.179-1.154 3 3 0 0 1 -.782-2.3 2.6 2.6 0 0 1 .963-1.858 3.2 3.2 0 0 1 2.091-.673 3.515 3.515 0 0 1 1.581.29l.374.043.091-.152.286-.066.2.2c0 .738.2 2.181.218 2.493l-.087.128-.4.1-.132-.1a5.649 5.649 0 0 0 -.785-1.577 1.86 1.86 0 0 0 -1.465-.6 1.46 1.46 0 0 0 -1.575 1.357 1.859 1.859 0 0 0 .356 1.092 4.072 4.072 0 0 0 1.558.906 6.254 6.254 0 0 1 2.4 1.2 2.754 2.754 0 0 1 .714 2.137 2.929 2.929 0 0 1 -3.1 3.087 3.8 3.8 0 0 1 -2.42-.779"/><path d="m95.5 138.827c0 .132 0 2.69.021 3.029a.825.825 0 0 0 .955.821h.339l.128.109v.536l-.128.155c-.185 0-1.338-.068-2.338-.068-.759 0-2.047.068-2.181.068l-.132-.177v-.487l.132-.136h.492c.558 0 .911-.023.948-.427.031-.194.055-3.015.055-3.778v-.972c0-.356-.055-2.578-.055-2.893 0-.246-.194-.469-1.126-.469h-.4l-.132-.157v-.508l.132-.131c.136 0 1.512.088 2.559.068.648 0 1.779-.068 1.954-.068l.137.106v.533l-.137.157h-.377c-.6 0-.8.092-.821.556l-.021 3.03z"/><path d="m103.521 134.186a13.117 13.117 0 0 0 -2.733.194 5.076 5.076 0 0 0 -1.313 1.713l-.2.111-.4-.154-.087-.223c.152-.493.688-2.291.776-2.691l.2-.224.181.068.175.137a1.36 1.36 0 0 0 .864.244c.784.043 1.63.084 2.916.084h.893c.884 0 2.221-.041 3.129-.084a1.508 1.508 0 0 0 .8-.2l.268-.178.177-.068c.09 0 .132.068.2.492.037.311.418 1.911.527 2.514l-.109.175-.381.111-.241-.085a5.707 5.707 0 0 0 -1.113-1.717 14.3 14.3 0 0 0 -2.823-.216v3.73c0 2.333 0 4 .024 4.182.044.358.154.579.509.579h.845l.158.2v.465l-.158.134c-.153 0-1.534-.068-2.27-.068-.62 0-2.058.068-2.247.068l-.175-.2v-.45l.137-.152h.886c.334 0 .492-.179.511-.352.068-.851.068-2.032.068-3.366z"/><path d="m117.421 140.764c.023.558 0 1.153.047 1.421.041.47.4.492.793.492h.292l.156.112v.534l-.181.155c-.131 0-1.377-.068-2.113-.068-.489 0-1.777.068-1.911.068l-.156-.178v-.486l.132-.137h.339c.707 0 .841-.134.867-.443.018-.2.018-1.006.018-2.313v-.8c-.2-.4-2.914-4.38-3.266-4.716l-.8-.266h-.31l-.159-.18v-.487l.182-.131c.137 0 1.29.066 1.82.066.492 0 2-.066 2.163-.066l.155.153v.487l-.155.158h-.334c-.4 0-.427.244-.336.38.131.2 1.982 3.152 2.335 3.691.333-.555 2.179-3.247 2.269-3.425.178-.35.2-.646-.29-.646h-.355l-.15-.158v-.487l.15-.153c.136 0 1.246.066 1.916.066.4 0 1.179-.066 1.31-.066l.153.175v.465l-.132.158h-.218a1.579 1.579 0 0 0 -.806.181 49.939 49.939 0 0 0 -3.421 4.577z"/><path d="m49.382 43.086a3.384 3.384 0 0 1 .211 1.206 5.517 5.517 0 0 1 -1.1 3.054 5.065 5.065 0 0 0 3.992-1.162l.505-.022c2.215 1.676 3.948 1.1 4.446.872a5.773 5.773 0 0 0 .229-1.514 4.573 4.573 0 0 0 -1.123-3.068l-.116-.289.061-.211a6.151 6.151 0 0 0 .845-3.242 7.459 7.459 0 0 0 -.128-1.419 5.738 5.738 0 0 1 -2.789 1.142c-1.414.016-3.076-1.558-3.7-2.143l-.149-.142a17.088 17.088 0 0 0 -11.587-4.5c-10.536 0-16.933 6.3-17.114 16.846a13.071 13.071 0 0 1 -4.389 9.506 14.048 14.048 0 0 1 4.647 8.738c.557 3.08 1.944 8.762 4.987 12.262 4.248 5.193 9.246 5.856 13.125 5.856 9.634 0 15.785-8.787 15.785-14.845a5.311 5.311 0 0 0 -1.008-3.4 3.817 3.817 0 0 0 -3.112-1.311 4.1 4.1 0 0 0 -4.065 4.138 4.2 4.2 0 0 0 1 2.713 6.076 6.076 0 0 0 .926 1.011l.113.5c-.033.06-2.986 5.876-9.375 5.876-7.428 0-13.024-5.46-13.024-12.7a12.58 12.58 0 0 1 4.038-8.814c-1.119-.9-4.014-3.783-4.014-9.525 0-7.774 4.191-12.237 11.5-12.237a10.613 10.613 0 0 1 10.391 6.824"/><path d="m79.283 48.494a13.047 13.047 0 0 1 -4.394 9.506 14.115 14.115 0 0 1 4.659 8.739c.552 3.079 1.941 8.761 4.975 12.261 4.252 5.193 9.249 5.855 13.126 5.855 10.95 0 17-8.693 17-14.708a5.417 5.417 0 0 0 -1.055-3.493 3.947 3.947 0 0 0 -3.2-1.356 4.1 4.1 0 0 0 -4.06 4.138 4.175 4.175 0 0 0 1 2.712 6.049 6.049 0 0 0 .922 1.012l.115.492a11.83 11.83 0 0 1 -10.471 6.375 12.965 12.965 0 0 1 -13.013-13.189 12.6 12.6 0 0 1 4.033-8.814c-1.113-.9-4-3.783-4-9.525 0-4.975 1.715-8.59 4.858-10.547a16.7 16.7 0 0 0 -2.137-2.893 4.934 4.934 0 0 0 -1.284-.831c-4.436 2.778-6.958 7.7-7.069 14.266"/><path d="m106.805 43.086a3.488 3.488 0 0 1 .205 1.206 5.54 5.54 0 0 1 -1.1 3.054 5.032 5.032 0 0 0 3.986-1.162l.508-.022c2.212 1.676 3.951 1.1 4.443.872a5.544 5.544 0 0 0 .232-1.514 4.571 4.571 0 0 0 -1.124-3.068l-.112-.289.061-.211a6.181 6.181 0 0 0 .838-3.242 8.4 8.4 0 0 0 -.12-1.419 5.763 5.763 0 0 1 -2.788 1.142c-1.419.016-3.087-1.558-3.713-2.143l-.147-.142a17.129 17.129 0 0 0 -10.34-4.459 18.323 18.323 0 0 1 1.776 4.911 10.521 10.521 0 0 1 7.395 6.482"/></g></svg>